<?xml version="1.0" encoding="UTF-8"?>
<svg width="20px" height="20px" viewBox="0 0 20 20" version="1.1" xmlns="http://www.w3.org/2000/svg" xmlns:xlink="http://www.w3.org/1999/xlink">
    <!-- Generator: Sketch 50.2 (55047) - http://www.bohemiancoding.com/sketch -->
    <title>website_icon</title>
    <desc>Created with Sketch.</desc>
    <defs></defs>
    <g id="Page-1" stroke="none" stroke-width="1" fill="none" fill-rule="evenodd">
        <g id="website_icon" transform="translate(-2.000000, -2.000000)">
            <polygon id="Shape" points="0 0 24 0 24 24 0 24"></polygon>
            <path d="M11.99,2 C6.47,2 2,6.48 2,12 C2,17.52 6.47,22 11.99,22 C17.52,22 22,17.52 22,12 C22,6.48 17.52,2 11.99,2 Z M19,8 L16.2748268,8 C15.9792148,6.59550562 15.5542725,5.24719101 15,4 C16.6997691,4.70786517 18.113164,6.14606742 19,8 Z M12,4 C12.8691099,5.21212121 13.5497382,6.55555556 14,8 L10,8 C10.4502618,6.55555556 11.1308901,5.21212121 12,4 Z M4.28571429,14 C4.10989011,13.36 4,12.69 4,12 C4,11.31 4.10989011,10.64 4.28571429,10 L8,10 C7.91208791,10.66 7.84615385,11.32 7.84615385,12 C7.84615385,12.68 7.91208791,13.34 8,14 L4.28571429,14 Z M5,16 L7.72517321,16 C8.02078522,17.4044944 8.44572748,18.752809 9,20 C7.30023095,19.2921348 5.88683603,17.8651685 5,16 Z M7.72517321,8 L5,8 C5.88683603,6.13483146 7.30023095,4.70786517 9,4 C8.44572748,5.24719101 8.02078522,6.59550562 7.72517321,8 Z M12,20 C11.1308901,18.7878788 10.4502618,17.4444444 10,16 L14,16 C13.5497382,17.4444444 12.8691099,18.7878788 12,20 Z M14.84,14 L10.16,14 C10.07,13.34 10,12.68 10,12 C10,11.32 10.07,10.65 10.16,10 L14.84,10 C14.93,10.65 15,11.32 15,12 C15,12.68 14.93,13.34 14.84,14 Z M15,20 C15.5542725,18.752809 15.9792148,17.4044944 16.2748268,16 L19,16 C18.113164,17.8539326 16.6997691,19.2921348 15,20 Z M16,14 C16.0879121,13.34 16.1538462,12.68 16.1538462,12 C16.1538462,11.32 16.0879121,10.66 16,10 L19.7142857,10 C19.8901099,10.64 20,11.31 20,12 C20,12.69 19.8901099,13.36 19.7142857,14 L16,14 Z" id="Shape" fill="#4A90E2" fill-rule="nonzero"></path>
        </g>
    </g>
</svg>